<?xml version="1.0" encoding="utf-8"?>
<!-- Generator: Adobe Illustrator 16.0.0, SVG Export Plug-In . SVG Version: 6.00 Build 0)  -->
<!DOCTYPE svg PUBLIC "-//W3C//DTD SVG 1.1//EN" "http://www.w3.org/Graphics/SVG/1.1/DTD/svg11.dtd">
<svg version="1.1" id="Layer_1" xmlns="http://www.w3.org/2000/svg" xmlns:xlink="http://www.w3.org/1999/xlink" x="0px" y="0px"
	 width="340.157px" height="141.732px" viewBox="0 0 340.157 141.732" enable-background="new 0 0 340.157 141.732"
	 xml:space="preserve">
<path fill="#00604E" d="M46.987,86.077c-4.411-6.771-11.088-11.93-18.961-14.387c0.238,3.116,0.787,6.149,1.615,9.067
	c2.627,1.303,5.05,3.04,7.18,5.171c4.765,4.764,7.581,10.953,7.981,17.637v0.008c2.423,1.954,5.056,3.664,7.852,5.089v-3.439
	C52.654,98.163,50.57,91.581,46.987,86.077"/>
<path fill="#00604E" d="M64.468,84.136c-1.492-3.332-3.339-6.474-5.476-9.378c-1.704-2.314-3.597-4.479-5.653-6.475
	c-6.447-6.257-14.523-10.831-23.535-13.03c-0.74,2.477-1.276,5.042-1.588,7.683c2.137,0.535,4.234,1.248,6.277,2.11
	c5.192,2.192,9.853,5.335,13.865,9.344c0.563,0.563,1.106,1.134,1.629,1.724c2.185,2.43,4.078,5.077,5.652,7.914
	c0.761,1.363,1.453,2.774,2.064,4.22c2.273,5.376,3.42,11.082,3.42,16.973v6.732c2.537,0.699,5.157,1.188,7.851,1.432v-8.164
	C68.974,97.709,67.366,90.57,64.468,84.136"/>
<path fill="#00604E" d="M81.943,84.143c-0.577-1.783-1.242-3.556-1.98-5.301c-0.694-1.629-1.44-3.229-2.255-4.79
	c-1.336-2.592-2.843-5.083-4.498-7.465c-1.67-2.409-3.503-4.703-5.483-6.889c-0.741-0.814-1.507-1.615-2.287-2.395
	c-1.087-1.086-2.206-2.138-3.359-3.135c-5.423-4.744-11.517-8.564-18.175-11.381c-2.117-0.896-4.261-1.676-6.44-2.348
	c-1.683,2.151-3.169,4.458-4.438,6.894c9.256,2.471,17.63,7.099,24.545,13.329c2.01,1.798,3.903,3.746,5.654,5.81
	c2.015,2.375,3.847,4.905,5.483,7.58c1.737,2.851,3.251,5.862,4.5,9.006c2.733,6.854,4.234,14.332,4.234,22.163v8.164
	c2.687-0.244,5.313-0.732,7.845-1.432v-6.732C85.289,97.987,84.17,90.916,81.943,84.143"/>
<path fill="#00604E" d="M99.486,85.989c-0.781-3.373-1.778-6.69-2.993-9.956c-0.434-1.2-0.909-2.395-1.411-3.583
	c-0.604-1.432-1.249-2.843-1.934-4.233c-1.276-2.62-2.687-5.165-4.235-7.622c-1.391-2.232-2.898-4.397-4.513-6.487
	c-1.697-2.233-3.529-4.385-5.483-6.454c-0.598-0.651-1.222-1.289-1.852-1.92c-1.229-1.235-2.498-2.423-3.794-3.564
	c-6.428-5.7-13.627-10.335-21.479-13.823c-2.783,1.493-5.395,3.271-7.791,5.301c8.74,3.216,16.728,8.001,23.624,14
	c1.981,1.717,3.868,3.534,5.646,5.449c1.954,2.076,3.779,4.261,5.483,6.542c1.614,2.171,3.121,4.425,4.499,6.766
	c1.582,2.653,2.999,5.415,4.235,8.272c1.316,2.979,2.436,6.066,3.346,9.236c1.791,6.142,2.816,12.609,2.985,19.286
	c0,0-0.006,0.008,0,0.015c0.021,0.65,0.028,1.309,0.028,1.968v3.44c2.782-1.433,5.401-3.136,7.811-5.091
	c0.006,0,0.013,0,0.013-0.006v-0.176C101.549,97.451,100.816,91.649,99.486,85.989"/>
<path fill="#36D75E" d="M99.486,85.989c-3.278,4.995-5.313,10.879-5.667,17.21c0,0-0.006,0.008,0,0.015
	c-0.041,0.665-0.061,1.338-0.061,2.008v3.441c0.028-0.015,0.061-0.027,0.089-0.041c2.782-1.433,5.401-3.136,7.811-5.091
	c0-0.061,0.006-0.122,0.013-0.182c0.441-6.583,3.211-12.711,7.92-17.421c2.131-2.131,4.553-3.869,7.18-5.171
	c0.827-2.918,1.378-5.952,1.615-9.074C110.555,74.134,103.897,79.257,99.486,85.989"/>
<path fill="#36D75E" d="M116.607,55.254c-8.978,2.192-17.027,6.746-23.46,12.962c-2.063,1.988-3.957,4.153-5.66,6.461
	c-2.172,2.931-4.031,6.1-5.545,9.467c-2.89,6.432-4.499,13.572-4.499,21.078v8.163c2.687-0.244,5.314-0.733,7.845-1.432v-6.731
	c0-5.892,1.148-11.598,3.421-16.974c0.63-1.485,1.344-2.938,2.124-4.336c1.581-2.824,3.475-5.463,5.659-7.879
	c0.51-0.563,1.026-1.106,1.561-1.643c4.012-4.01,8.673-7.153,13.865-9.345c2.049-0.861,4.146-1.566,6.277-2.103
	C117.891,60.303,117.355,57.731,116.607,55.254"/>
<path fill="#36D75E" d="M108.946,40.439c-2.178,0.672-4.322,1.452-6.439,2.348c-6.632,2.803-12.706,6.604-18.106,11.32
	c-1.175,1.018-2.322,2.09-3.428,3.196c-0.76,0.761-1.506,1.54-2.219,2.334c-2.016,2.199-3.861,4.52-5.544,6.949
	c-1.663,2.383-3.17,4.874-4.499,7.466c-0.816,1.561-1.569,3.162-2.26,4.791c-0.734,1.744-1.399,3.509-1.983,5.293
	c-2.219,6.773-3.345,13.845-3.345,21.085v6.732c2.537,0.698,5.158,1.188,7.852,1.432v-8.164c0-7.831,1.499-15.309,4.235-22.164
	c1.249-3.142,2.761-6.156,4.499-9.005c1.649-2.701,3.502-5.253,5.544-7.648c1.751-2.064,3.644-4.005,5.66-5.81
	c6.902-6.189,15.249-10.803,24.471-13.259C112.115,44.897,110.629,42.59,108.946,40.439"/>
<path fill="#36D75E" d="M94.701,28.387C86.87,31.868,79.69,36.49,73.27,42.169c-1.309,1.148-2.592,2.355-3.834,3.597
	c-0.618,0.618-1.229,1.242-1.812,1.88c-1.975,2.091-3.827,4.261-5.545,6.522c-1.615,2.096-3.122,4.261-4.505,6.494
	c-1.547,2.464-2.959,5.001-4.236,7.621c-0.678,1.385-1.316,2.782-1.92,4.207c-0.509,1.202-0.984,2.41-1.431,3.625
	c-1.208,3.264-2.212,6.589-3,9.961c-1.344,5.701-2.077,11.537-2.185,17.489v0.007c2.422,1.954,5.055,3.665,7.851,5.09v-3.442
	c0-7.354,1.039-14.467,2.986-21.191c0.916-3.184,2.037-6.278,3.353-9.271c1.242-2.864,2.66-5.625,4.234-8.287
	c1.385-2.341,2.884-4.601,4.5-6.773c1.724-2.307,3.569-4.506,5.544-6.603c1.778-1.907,3.665-3.726,5.646-5.443
	c6.882-5.979,14.842-10.742,23.556-13.959C100.083,31.665,97.476,29.881,94.701,28.387"/>
<path fill="#006C60" d="M138.395,79.042c-0.691,0-1.41-0.046-2.155-0.137c-0.746-0.091-1.496-0.236-2.251-0.436
	c-0.755-0.199-1.496-0.459-2.224-0.778c-0.727-0.318-1.401-0.695-2.018-1.131c0.181-0.51,0.436-1.024,0.763-1.542
	c0.328-0.52,0.673-1.023,1.037-1.514c0.509,0.255,1.055,0.464,1.637,0.627c0.582,0.164,1.16,0.301,1.732,0.408
	c0.573,0.109,1.133,0.188,1.678,0.232c0.546,0.045,1.037,0.069,1.474,0.069c0.273,0,0.586-0.011,0.941-0.028s0.691-0.068,1.01-0.15
	c0.317-0.082,0.59-0.214,0.818-0.395c0.227-0.183,0.341-0.438,0.341-0.764c0-0.347-0.1-0.659-0.3-0.941
	c-0.2-0.283-0.468-0.542-0.805-0.778c-0.337-0.236-0.737-0.464-1.2-0.682c-0.464-0.218-0.96-0.455-1.487-0.709
	c-0.528-0.182-1.169-0.433-1.924-0.751c-0.755-0.318-1.478-0.713-2.169-1.187c-0.691-0.473-1.278-1.037-1.76-1.691
	c-0.482-0.656-0.722-1.41-0.722-2.265c0-0.873,0.145-1.637,0.436-2.292c0.291-0.654,0.696-1.2,1.214-1.637
	c0.518-0.436,1.141-0.758,1.869-0.968c0.727-0.209,1.528-0.314,2.401-0.314c1.382,0,2.715,0.137,3.997,0.409
	c1.282,0.273,2.351,0.601,3.206,0.983c-0.164,0.691-0.396,1.287-0.696,1.787c-0.3,0.5-0.632,0.931-0.996,1.296
	c-0.273-0.073-0.596-0.155-0.969-0.246c-0.373-0.091-0.773-0.173-1.2-0.246c-0.428-0.072-0.873-0.131-1.337-0.177
	c-0.464-0.045-0.914-0.069-1.35-0.069c-0.273,0-0.546,0.005-0.819,0.014c-0.273,0.01-0.527,0.051-0.764,0.123
	c-0.236,0.073-0.428,0.178-0.573,0.314c-0.146,0.136-0.218,0.341-0.218,0.614c0,0.272,0.205,0.555,0.614,0.846
	c0.409,0.291,0.891,0.578,1.446,0.859c0.554,0.282,1.123,0.551,1.705,0.805c0.582,0.254,1.055,0.473,1.419,0.655
	c0.691,0.327,1.35,0.654,1.978,0.982c0.627,0.327,1.178,0.719,1.651,1.173c0.472,0.455,0.85,1.01,1.132,1.664
	c0.282,0.655,0.423,1.465,0.423,2.43c0,0.944-0.201,1.764-0.601,2.454c-0.4,0.691-0.927,1.266-1.582,1.72
	c-0.655,0.455-1.401,0.796-2.237,1.022C140.123,78.929,139.268,79.042,138.395,79.042"/>
<path fill="#006C60" d="M151.327,60.135c0,0.746-0.241,1.333-0.723,1.76c-0.482,0.427-1.05,0.641-1.705,0.641
	c-0.655,0-1.224-0.214-1.705-0.641c-0.483-0.427-0.723-1.014-0.723-1.76c0-0.746,0.24-1.332,0.723-1.76
	c0.481-0.427,1.05-0.642,1.705-0.642c0.655,0,1.223,0.215,1.705,0.642C151.086,58.803,151.327,59.389,151.327,60.135
	 M150.945,78.633h-4.065V64.282h4.065V78.633z"/>
<path fill="#006C60" d="M153.673,64.772c0.691-0.199,1.583-0.386,2.674-0.559c1.091-0.172,2.237-0.259,3.438-0.259
	c1.218,0,2.232,0.16,3.042,0.477c0.809,0.319,1.45,0.769,1.923,1.351c0.473,0.582,0.809,1.273,1.01,2.073
	c0.2,0.801,0.3,1.692,0.3,2.674v8.103h-4.065v-7.612c0-1.31-0.174-2.237-0.519-2.782c-0.345-0.546-0.991-0.82-1.937-0.82
	c-0.291,0-0.6,0.014-0.928,0.042c-0.327,0.027-0.618,0.059-0.873,0.095v11.077h-4.065V64.772z"/>
<path fill="#006C60" d="M181.311,78.168c-0.364,0.11-0.782,0.214-1.255,0.314c-0.473,0.1-0.968,0.186-1.487,0.26
	c-0.518,0.072-1.046,0.131-1.582,0.176c-0.537,0.046-1.051,0.069-1.541,0.069c-1.183,0-2.237-0.173-3.165-0.52
	c-0.928-0.345-1.71-0.841-2.347-1.485c-0.637-0.646-1.123-1.429-1.46-2.348c-0.336-0.918-0.504-1.951-0.504-3.097
	c0-1.164,0.145-2.213,0.436-3.151c0.291-0.936,0.71-1.732,1.255-2.387c0.546-0.655,1.214-1.155,2.006-1.501
	c0.791-0.345,1.695-0.518,2.714-0.518c0.563,0,1.068,0.055,1.514,0.164c0.446,0.109,0.896,0.264,1.352,0.464v-6.493l4.064-0.656
	V78.168z M172.117,71.349c0,1.255,0.281,2.264,0.846,3.028c0.563,0.764,1.399,1.146,2.509,1.146c0.364,0,0.701-0.015,1.01-0.041
	c0.31-0.028,0.564-0.06,0.765-0.097v-7.393c-0.256-0.164-0.588-0.3-0.996-0.41c-0.409-0.109-0.823-0.164-1.241-0.164
	C173.081,67.418,172.117,68.729,172.117,71.349"/>
<path fill="#006C60" d="M188.487,60.135c0,0.746-0.241,1.333-0.725,1.76c-0.48,0.427-1.05,0.641-1.705,0.641
	c-0.653,0-1.223-0.214-1.705-0.641c-0.481-0.427-0.723-1.014-0.723-1.76c0-0.746,0.241-1.332,0.723-1.76
	c0.482-0.427,1.052-0.642,1.705-0.642c0.655,0,1.225,0.215,1.705,0.642C188.246,58.803,188.487,59.389,188.487,60.135
	 M188.104,78.633h-4.063V64.282h4.063V78.633z"/>
<path fill="#006C60" d="M190.15,71.457c0-1.036,0.168-2.014,0.505-2.933c0.336-0.918,0.822-1.718,1.46-2.401
	c0.637-0.682,1.408-1.223,2.317-1.623c0.91-0.399,1.946-0.601,3.111-0.601c0.764,0,1.463,0.069,2.101,0.205
	c0.637,0.137,1.256,0.332,1.855,0.587l-0.846,3.246c-0.383-0.145-0.801-0.272-1.256-0.381c-0.454-0.11-0.964-0.164-1.526-0.164
	c-1.201,0-2.097,0.373-2.688,1.119c-0.592,0.746-0.887,1.728-0.887,2.946c0,1.292,0.278,2.292,0.832,3
	c0.555,0.71,1.524,1.064,2.906,1.064c0.491,0,1.018-0.044,1.583-0.136c0.563-0.091,1.082-0.236,1.554-0.438l0.574,3.329
	c-0.475,0.2-1.065,0.372-1.774,0.52c-0.709,0.144-1.491,0.218-2.346,0.218c-1.311,0-2.438-0.196-3.383-0.587
	c-0.947-0.392-1.725-0.923-2.333-1.597c-0.61-0.673-1.056-1.469-1.337-2.387C190.291,73.526,190.15,72.53,190.15,71.457"/>
<path fill="#006C60" d="M208.539,63.899c1.2,0,2.2,0.137,3.001,0.41c0.801,0.273,1.44,0.665,1.924,1.173
	c0.48,0.509,0.822,1.128,1.021,1.856c0.2,0.728,0.302,1.537,0.302,2.428v8.458c-0.583,0.127-1.393,0.276-2.43,0.45
	c-1.035,0.173-2.291,0.259-3.764,0.259c-0.928,0-1.77-0.081-2.524-0.245c-0.756-0.164-1.404-0.433-1.95-0.805
	c-0.546-0.373-0.965-0.859-1.255-1.461c-0.291-0.601-0.437-1.337-0.437-2.21c0-0.836,0.167-1.546,0.504-2.128
	c0.336-0.582,0.787-1.045,1.352-1.392c0.563-0.345,1.209-0.595,1.937-0.75c0.728-0.154,1.482-0.232,2.264-0.232
	c0.528,0,0.996,0.023,1.405,0.068c0.41,0.046,0.742,0.105,0.997,0.178v-0.382c0-0.691-0.21-1.246-0.628-1.665
	c-0.419-0.418-1.146-0.627-2.183-0.627c-0.691,0-1.373,0.05-2.047,0.15c-0.674,0.1-1.255,0.241-1.745,0.423l-0.52-3.274
	c0.237-0.072,0.533-0.15,0.887-0.232c0.355-0.081,0.74-0.155,1.159-0.218c0.418-0.064,0.86-0.118,1.324-0.164
	C207.597,63.923,208.064,63.899,208.539,63.899 M208.866,75.794c0.399,0,0.781-0.009,1.146-0.026
	c0.364-0.019,0.655-0.045,0.874-0.081v-3.083c-0.165-0.037-0.41-0.074-0.738-0.11c-0.327-0.036-0.627-0.054-0.899-0.054
	c-0.382,0-0.741,0.022-1.077,0.068c-0.337,0.046-0.633,0.132-0.887,0.259c-0.256,0.128-0.455,0.3-0.602,0.518
	c-0.145,0.219-0.217,0.491-0.217,0.819c0,0.636,0.212,1.078,0.64,1.323C207.534,75.672,208.12,75.794,208.866,75.794"/>
<path fill="#006C60" d="M217.242,60.708l4.064-0.655v4.229h4.884v3.383h-4.884v5.047c0,0.854,0.15,1.537,0.451,2.047
	c0.299,0.509,0.904,0.763,1.813,0.763c0.438,0,0.888-0.041,1.352-0.123c0.464-0.081,0.886-0.195,1.268-0.34l0.572,3.165
	c-0.491,0.2-1.036,0.373-1.636,0.518c-0.602,0.146-1.337,0.218-2.21,0.218c-1.11,0-2.029-0.148-2.756-0.449
	c-0.729-0.301-1.311-0.719-1.746-1.255c-0.438-0.536-0.741-1.188-0.914-1.95c-0.173-0.766-0.259-1.611-0.259-2.538V60.708z"/>
<path fill="#006C60" d="M241.823,71.43c0,1.128-0.163,2.16-0.491,3.097c-0.327,0.937-0.8,1.736-1.418,2.4
	c-0.619,0.664-1.359,1.179-2.223,1.541c-0.865,0.364-1.833,0.546-2.907,0.546c-1.054,0-2.014-0.182-2.878-0.546
	c-0.864-0.362-1.604-0.877-2.223-1.541c-0.619-0.664-1.102-1.464-1.446-2.4c-0.346-0.938-0.519-1.969-0.519-3.097
	c0-1.127,0.178-2.155,0.531-3.083c0.355-0.928,0.847-1.719,1.475-2.373c0.627-0.655,1.373-1.164,2.236-1.528
	c0.863-0.364,1.806-0.546,2.823-0.546c1.038,0,1.988,0.182,2.853,0.546c0.862,0.364,1.604,0.873,2.224,1.528
	c0.618,0.654,1.099,1.445,1.445,2.373C241.651,69.274,241.823,70.303,241.823,71.43 M237.678,71.43c0-1.255-0.251-2.241-0.751-2.96
	c-0.5-0.719-1.215-1.078-2.143-1.078c-0.927,0-1.646,0.359-2.155,1.078c-0.51,0.719-0.764,1.705-0.764,2.96
	c0,1.255,0.254,2.25,0.764,2.988s1.229,1.105,2.155,1.105c0.928,0,1.643-0.368,2.143-1.105S237.678,72.685,237.678,71.43"/>
<path fill="#006C60" d="M259.639,70.147c0.328,0.655,0.688,1.315,1.078,1.979c0.392,0.664,0.791,1.345,1.201,2.046
	c0.409,0.7,0.813,1.419,1.213,2.154c0.401,0.737,0.766,1.496,1.092,2.278h-4.584c-0.327-0.636-0.612-1.241-0.858-1.813
	c-0.245-0.573-0.491-1.123-0.736-1.651c-0.247-0.527-0.501-1.037-0.764-1.528c-0.266-0.489-0.578-0.973-0.942-1.444
	c-0.146,0-0.323,0.03-0.532,0.094c-0.209,0.064-0.436,0.133-0.681,0.206c-0.247,0.073-0.488,0.14-0.724,0.205
	c-0.236,0.063-0.445,0.094-0.627,0.094v5.839h-3.849v-18.88h7.149c0.817,0,1.583,0.146,2.292,0.437s1.327,0.678,1.854,1.159
	c0.528,0.482,0.942,1.033,1.241,1.651c0.3,0.619,0.451,1.255,0.451,1.91c0,1.364-0.296,2.497-0.887,3.396
	C261.435,69.178,260.639,69.802,259.639,70.147 M253.774,68.865c0.509,0,1.035-0.077,1.582-0.231
	c0.546-0.155,1.063-0.373,1.555-0.656c0.491-0.281,0.927-0.627,1.309-1.036c0.383-0.41,0.664-0.86,0.848-1.35
	c0-0.637-0.201-1.128-0.602-1.474c-0.399-0.346-1.108-0.519-2.128-0.519h-2.563V68.865z"/>
<path fill="#006C60" d="M278.684,78.141c-0.691,0.2-1.583,0.388-2.675,0.561c-1.092,0.172-2.236,0.258-3.437,0.258
	c-1.219,0-2.234-0.163-3.042-0.491c-0.811-0.327-1.451-0.786-1.924-1.378c-0.475-0.591-0.811-1.296-1.011-2.114
	c-0.199-0.817-0.3-1.719-0.3-2.7v-7.993h4.066v7.503c0,1.309,0.173,2.254,0.518,2.836c0.346,0.582,0.991,0.874,1.938,0.874
	c0.291,0,0.6-0.014,0.928-0.042c0.327-0.027,0.618-0.058,0.873-0.095V64.283h4.065V78.141z"/>
<path fill="#006C60" d="M290.061,67.883c-0.364-0.091-0.791-0.186-1.282-0.286s-1.02-0.151-1.582-0.151
	c-0.255,0-0.561,0.024-0.914,0.069c-0.356,0.046-0.624,0.096-0.806,0.15v10.968h-4.064V65.046c0.726-0.255,1.586-0.495,2.578-0.724
	c0.991-0.226,2.095-0.34,3.313-0.34c0.22,0,0.483,0.013,0.792,0.041c0.31,0.027,0.617,0.064,0.928,0.109
	c0.309,0.046,0.617,0.1,0.928,0.164c0.309,0.064,0.573,0.141,0.792,0.232L290.061,67.883z"/>
<path fill="#006C60" d="M296.99,63.899c1.2,0,2.2,0.137,3.001,0.41c0.801,0.273,1.44,0.665,1.924,1.173
	c0.48,0.509,0.822,1.128,1.021,1.856c0.2,0.728,0.302,1.537,0.302,2.428v8.458c-0.583,0.127-1.393,0.276-2.43,0.45
	c-1.035,0.173-2.291,0.259-3.764,0.259c-0.928,0-1.77-0.081-2.524-0.245c-0.756-0.164-1.404-0.433-1.95-0.805
	c-0.546-0.373-0.965-0.859-1.255-1.461c-0.291-0.601-0.437-1.337-0.437-2.21c0-0.836,0.167-1.546,0.504-2.128
	c0.336-0.582,0.787-1.045,1.352-1.392c0.563-0.345,1.209-0.595,1.937-0.75c0.728-0.154,1.482-0.232,2.264-0.232
	c0.528,0,0.996,0.023,1.405,0.068c0.41,0.046,0.742,0.105,0.997,0.178v-0.382c0-0.691-0.21-1.246-0.628-1.665
	c-0.419-0.418-1.146-0.627-2.183-0.627c-0.691,0-1.373,0.05-2.046,0.15c-0.675,0.1-1.256,0.241-1.746,0.423l-0.52-3.274
	c0.237-0.072,0.533-0.15,0.887-0.232c0.355-0.081,0.74-0.155,1.159-0.218c0.418-0.064,0.86-0.118,1.324-0.164
	C296.048,63.923,296.516,63.899,296.99,63.899 M297.317,75.794c0.399,0,0.781-0.009,1.146-0.026
	c0.364-0.019,0.655-0.045,0.874-0.081v-3.083c-0.165-0.037-0.41-0.074-0.738-0.11c-0.327-0.036-0.627-0.054-0.899-0.054
	c-0.382,0-0.741,0.022-1.077,0.068c-0.337,0.046-0.633,0.132-0.887,0.259c-0.255,0.128-0.455,0.3-0.602,0.518
	c-0.145,0.219-0.217,0.491-0.217,0.819c0,0.636,0.212,1.078,0.64,1.323C295.985,75.672,296.571,75.794,297.317,75.794"/>
<path fill="#006C60" d="M311.56,78.905c-1.184-0.018-2.143-0.146-2.88-0.382c-0.735-0.235-1.317-0.567-1.745-0.995
	c-0.429-0.428-0.72-0.945-0.873-1.556c-0.154-0.609-0.231-1.296-0.231-2.059V58.116l4.064-0.655v15.633
	c0,0.364,0.026,0.692,0.082,0.981c0.055,0.291,0.158,0.537,0.313,0.737s0.377,0.363,0.668,0.491
	c0.291,0.127,0.682,0.209,1.173,0.246L311.56,78.905z"/>
</svg>
